# xmcd
#
# Track frame offsets:
#	150
#	24087
#	53125
#	89275
#	105470
#	127815
#	134542
#	145537
#	155680
#	163755
#	186415
#	208282
#	221042
#
# Disc length: 2987 seconds
#
# Revision: 0
# Processed by: cddbd v1.4PL0 Copyright (c) Steve Scherf et al.
# Submitted via: dBpowerAMP V4.0
#
DISCID=b70ba90d
DTITLE=Al Hirt - Al Hirt Live
DYEAR=1900
DGENRE=Instrumental
TTITLE0=Bourbon Street
TTITLE1=Tin Roof Blues
TTITLE2=Just a closer walk
TTITLE3=Little Rock
TTITLE4=New Orleans
TTITLE5=Java
TTITLE6=Someone to watch over me
TTITLE7=You'll never know
TTITLE8=I'm getting sentimental
TTITLE9=Sty. James infirmary
TTITLE10=Don't he ramble
TTITLE11=Strike up the band
TTITLE12=Way down yonder
EXTD=
EXTT0=
EXTT1=
EXTT2=
EXTT3=
EXTT4=
EXTT5=
EXTT6=
EXTT7=
EXTT8=
EXTT9=
EXTT10=
EXTT11=
EXTT12=
PLAYORDER=
